<svg id="Layer_1" data-name="Layer 1" xmlns="http://www.w3.org/2000/svg" viewBox="0 0 1002.6 613.1"><defs><style>.cls-1{fill:#fff;}</style></defs><path class="cls-1" d="M267.5,846.5c-126.1,0-228.8-108.6-228.8-242.1,0-66.5,25-157.2,63.7-231.1,47.2-90.2,105.8-139.8,165.1-139.8,132.2,0,228.9,243.9,228.9,370.9C496.4,737.9,393.7,846.5,267.5,846.5Zm0-575.5c-44,0-92,43.6-131.9,119.7-35.5,67.9-59.4,153.7-59.4,213.7C76.2,717.2,162,809,267.5,809s191.3-91.8,191.3-204.6c0-60-23.8-145.8-59.3-213.7C359.6,314.6,311.5,271,267.5,271Z" transform="translate(-38.7 -233.5)"/><path class="cls-1" d="M543.7,846.5c-126.1,0-228.8-108.6-228.8-242.1,0-66.5,25-157.2,63.7-231.1,47.2-90.2,105.9-139.8,165.1-139.8,132.2,0,228.9,243.9,228.9,370.9C772.6,737.9,669.9,846.5,543.7,846.5Zm0-575.5c-44,0-92,43.6-131.9,119.7-35.5,67.9-59.4,153.7-59.4,213.7,0,112.8,85.9,204.6,191.3,204.6S735,717.2,735,604.4c0-60-23.8-145.8-59.3-213.7C635.8,314.6,587.7,271,543.7,271Z" transform="translate(-38.7 -233.5)"/><path class="cls-1" d="M812.5,846.5c-126.2,0-228.9-108.6-228.9-242.1,0-66.5,25-157.2,63.7-231.1,47.2-90.2,105.9-139.8,165.2-139.8,132.2,0,228.8,243.9,228.8,370.9C1041.3,737.9,938.6,846.5,812.5,846.5Zm0-575.5c-44,0-92.1,43.6-132,119.7-35.5,67.9-59.3,153.7-59.3,213.7C621.2,717.2,707,809,812.5,809s191.3-91.8,191.3-204.6c0-60-23.9-145.8-59.4-213.7C904.5,314.6,856.5,271,812.5,271Z" transform="translate(-38.7 -233.5)"/></svg>